<svg width="53" height="53" xmlns="http://www.w3.org/2000/svg" xmlns:xlink="http://www.w3.org/1999/xlink" xml:space="preserve" overflow="hidden"><g transform="translate(-85 -169)"><path d="M136.996 220.981 130.196 220.981 125.335 220.981 97.665 220.981 92.8039 220.981 86.0044 220.981" stroke="#323232" stroke-width="2.00872" stroke-linecap="round" stroke-linejoin="round" fill="none"/><path d="M98.2877 220.981 96.9016 205.785C96.8615 205.313 97.0121 204.841 97.3134 204.489 97.6248 204.137 98.0567 203.937 98.5187 203.937L124.491 203.937C124.953 203.937 125.385 204.137 125.697 204.489 126.008 204.851 126.149 205.313 126.108 205.785L124.722 220.981" stroke="#323232" stroke-width="2.00872" stroke-linecap="round" stroke-linejoin="round" fill="none"/><path d="M111.495 170.019C116.135 170.019 120.474 173.635 120.474 178.105L120.474 184.382C120.474 188.851 116.135 192.467 111.495 192.467 106.855 192.467 102.516 188.851 102.516 184.382L102.516 178.105C102.516 173.635 106.855 170.019 111.495 170.019Z" stroke="#323232" stroke-width="2.00872" stroke-linecap="round" stroke-linejoin="round" fill="none"/><path d="M95.1541 220.981C93.5471 220.981 91.9502 220.087 91.9502 217.425 91.9502 214.764 93.5571 203.595 94.3506 201.807L94.5615 201.285C95.3449 199.467 96.7309 197.921 99.1213 197.288 102.094 196.484 106.333 194.787 106.333 192.346L106.333 191.402" stroke="#323232" stroke-width="2.00872" stroke-linecap="round" stroke-linejoin="round" fill="none"/><path d="M103.802 195.992C105.64 197.318 108.402 198.162 111.495 198.162 114.588 198.162 117.35 197.318 119.188 195.992" stroke="#323232" stroke-width="2.00872" stroke-linecap="round" stroke-linejoin="round" fill="none"/><path d="M127.846 220.981C129.453 220.981 131.05 220.087 131.05 217.425 131.05 214.764 129.443 203.595 128.649 201.807L128.439 201.285C127.655 199.467 126.269 197.921 123.879 197.288 120.906 196.484 116.667 194.787 116.667 192.346L116.667 191.402" stroke="#323232" stroke-width="2.00872" stroke-linecap="round" stroke-linejoin="round" fill="none"/></g></svg>