<svg width="132" height="29" xmlns="http://www.w3.org/2000/svg" xmlns:xlink="http://www.w3.org/1999/xlink" xml:space="preserve" overflow="hidden"><g transform="translate(-304 -173)"><path d="M344.02 189.008C344.02 189.682 343.931 190.297 343.762 190.852 343.594 191.408 343.336 191.884 342.998 192.28 342.661 192.677 342.225 192.985 341.709 193.203 341.193 193.421 340.588 193.53 339.884 193.53 339.567 193.53 339.259 193.51 338.952 193.48 338.645 193.451 338.327 193.391 337.99 193.312L338.139 191.675C338.159 191.527 338.218 191.418 338.317 191.328 338.416 191.239 338.555 191.199 338.744 191.199 338.843 191.199 338.952 191.219 339.091 191.249 339.23 191.279 339.398 191.299 339.587 191.299 339.854 191.299 340.093 191.259 340.301 191.189 340.509 191.12 340.668 190.991 340.807 190.813 340.945 190.634 341.035 190.406 341.104 190.128 341.174 189.841 341.203 189.493 341.203 189.077L341.203 181.291 344.02 181.291 344.02 189.017Z"/><path d="M353.452 184.773 353.452 193.401 351.855 193.401C351.538 193.401 351.32 193.252 351.22 192.965L351.072 192.469C350.903 192.628 350.734 192.776 350.556 192.905 350.377 193.034 350.189 193.143 349.991 193.242 349.792 193.332 349.564 193.401 349.336 193.461 349.098 193.51 348.84 193.54 348.562 193.54 348.086 193.54 347.67 193.461 347.313 193.292 346.946 193.133 346.638 192.895 346.39 192.608 346.142 192.31 345.954 191.963 345.825 191.566 345.696 191.17 345.637 190.733 345.637 190.247L345.637 184.773 348.215 184.773 348.215 190.247C348.215 190.674 348.314 191.001 348.503 191.239 348.701 191.467 348.979 191.586 349.356 191.586 349.643 191.586 349.901 191.527 350.149 191.408 350.397 191.289 350.635 191.13 350.873 190.922L350.873 184.773 353.452 184.773Z"/><path d="M357.578 185.705C357.746 185.546 357.915 185.407 358.094 185.268 358.272 185.14 358.461 185.021 358.659 184.931 358.857 184.842 359.075 184.773 359.313 184.713 359.551 184.663 359.809 184.634 360.087 184.634 360.563 184.634 360.98 184.713 361.337 184.882 361.704 185.05 362.011 185.268 362.259 185.566 362.507 185.854 362.695 186.201 362.824 186.607 362.953 187.014 363.013 187.45 363.013 187.917L363.013 193.401 360.434 193.401 360.434 187.917C360.434 187.49 360.335 187.163 360.147 186.935 359.948 186.697 359.671 186.578 359.294 186.578 359.006 186.578 358.748 186.637 358.5 186.756 358.252 186.875 358.014 187.034 357.776 187.242L357.776 193.401 355.198 193.401 355.198 184.773 356.794 184.773C357.112 184.773 357.33 184.921 357.429 185.209L357.578 185.705Z"/><path d="M367.595 182.412C367.595 182.62 367.555 182.809 367.466 182.987 367.387 183.166 367.268 183.325 367.129 183.463 366.98 183.602 366.821 183.711 366.623 183.791 366.435 183.87 366.226 183.91 366.008 183.91 365.79 183.91 365.601 183.87 365.413 183.791 365.225 183.711 365.066 183.602 364.927 183.463 364.788 183.325 364.679 183.166 364.59 182.987 364.501 182.809 364.471 182.61 364.471 182.412 364.471 182.214 364.51 182.005 364.59 181.817 364.669 181.629 364.778 181.47 364.927 181.331 365.066 181.192 365.234 181.083 365.413 181.004 365.591 180.924 365.79 180.885 366.008 180.885 366.226 180.885 366.425 180.924 366.623 181.004 366.811 181.083 366.98 181.192 367.129 181.331 367.278 181.47 367.387 181.629 367.466 181.817 367.545 181.996 367.595 182.194 367.595 182.412ZM367.327 184.773 367.327 193.401 364.748 193.401 364.748 184.773 367.327 184.773Z"/><path d="M371.552 185.844C371.889 185.487 372.276 185.189 372.703 184.961 373.129 184.733 373.645 184.614 374.24 184.614 374.686 184.614 375.103 184.713 375.49 184.911 375.876 185.11 376.204 185.397 376.481 185.774 376.759 186.151 376.977 186.617 377.136 187.163 377.295 187.708 377.374 188.333 377.374 189.027 377.374 189.672 377.285 190.277 377.106 190.823 376.928 191.368 376.67 191.844 376.352 192.251 376.035 192.657 375.638 192.975 375.192 193.203 374.736 193.431 374.24 193.54 373.694 193.54 373.248 193.54 372.871 193.48 372.564 193.352 372.256 193.223 371.979 193.054 371.731 192.836L371.731 196.148 369.152 196.148 369.152 184.782 370.749 184.782C371.066 184.782 371.284 184.931 371.384 185.219L371.572 185.854ZM371.711 191.061C371.909 191.269 372.117 191.418 372.346 191.507 372.574 191.596 372.812 191.636 373.06 191.636 373.308 191.636 373.516 191.586 373.714 191.497 373.913 191.398 374.091 191.249 374.23 191.041 374.379 190.832 374.488 190.565 374.577 190.227 374.656 189.89 374.706 189.493 374.706 189.017 374.706 188.541 374.676 188.184 374.607 187.867 374.537 187.56 374.448 187.302 374.329 187.113 374.21 186.925 374.071 186.786 373.903 186.697 373.734 186.607 373.546 186.568 373.347 186.568 372.97 186.568 372.663 186.637 372.415 186.776 372.167 186.915 371.939 187.113 371.721 187.381L371.721 191.041Z"/><path d="M380.825 189.553C380.905 190.277 381.123 190.793 381.48 191.12 381.837 191.447 382.293 191.606 382.849 191.606 383.146 191.606 383.404 191.566 383.622 191.497 383.84 191.427 384.029 191.348 384.198 191.259 384.366 191.17 384.525 191.09 384.664 191.021 384.802 190.951 384.951 190.912 385.11 190.912 385.318 190.912 385.467 190.991 385.576 191.14L386.33 192.062C386.062 192.37 385.774 192.618 385.467 192.806 385.16 192.995 384.842 193.143 384.515 193.252 384.188 193.361 383.87 193.431 383.543 193.48 383.216 193.52 382.908 193.54 382.611 193.54 382.006 193.54 381.44 193.441 380.905 193.242 380.379 193.044 379.913 192.757 379.516 192.36 379.12 191.973 378.802 191.487 378.574 190.912 378.346 190.337 378.227 189.662 378.227 188.898 378.227 188.323 378.326 187.778 378.524 187.262 378.723 186.746 379.001 186.29 379.377 185.903 379.744 185.516 380.191 185.209 380.716 184.981 381.242 184.753 381.837 184.644 382.492 184.644 383.067 184.644 383.583 184.733 384.059 184.911 384.535 185.09 384.941 185.348 385.279 185.685 385.616 186.022 385.884 186.439 386.082 186.925 386.27 187.421 386.37 187.976 386.37 188.591 386.37 188.789 386.37 188.948 386.34 189.067 386.32 189.186 386.29 189.285 386.251 189.355 386.211 189.424 386.141 189.474 386.072 189.503 385.993 189.533 385.903 189.543 385.784 189.543L380.806 189.543ZM384.069 188.055C384.069 187.847 384.039 187.649 383.989 187.46 383.94 187.262 383.85 187.093 383.731 186.945 383.612 186.796 383.454 186.667 383.265 186.578 383.067 186.478 382.839 186.439 382.561 186.439 382.075 186.439 381.688 186.578 381.411 186.855 381.133 187.133 380.954 187.54 380.865 188.065L384.078 188.065Z"/><path d="M390.079 186.102C390.347 185.635 390.654 185.268 391.001 185.001 391.348 184.733 391.745 184.604 392.191 184.604 392.578 184.604 392.896 184.693 393.143 184.882L392.975 186.776C392.945 186.895 392.905 186.984 392.836 187.024 392.767 187.064 392.687 187.093 392.578 187.093 392.538 187.093 392.479 187.093 392.4 187.093 392.33 187.093 392.251 187.083 392.172 187.074 392.092 187.064 392.013 187.054 391.933 187.044 391.854 187.044 391.775 187.034 391.715 187.034 391.338 187.034 391.041 187.133 390.813 187.331 390.585 187.53 390.396 187.807 390.247 188.165L390.247 193.411 387.669 193.411 387.669 184.782 389.196 184.782C389.325 184.782 389.434 184.792 389.514 184.812 389.603 184.832 389.672 184.872 389.732 184.911 389.791 184.961 389.831 185.021 389.861 185.1 389.89 185.179 389.92 185.268 389.94 185.387L390.069 186.111Z"/><path d="M410.926 181.48 410.926 193.401 409.508 193.401 409.508 184.644C409.508 184.525 409.508 184.406 409.518 184.267 409.518 184.138 409.538 183.999 409.548 183.86L405.452 191.318C405.323 191.566 405.134 191.695 404.866 191.695L404.638 191.695C404.38 191.695 404.182 191.566 404.053 191.318L399.878 183.83C399.908 184.128 399.927 184.396 399.927 184.644L399.927 193.401 398.509 193.401 398.509 181.48 399.699 181.48C399.848 181.48 399.957 181.49 400.036 181.52 400.116 181.549 400.185 181.629 400.265 181.748L404.38 189.087C404.45 189.216 404.509 189.355 404.579 189.503 404.638 189.652 404.698 189.791 404.757 189.94 404.817 189.791 404.866 189.642 404.936 189.493 404.995 189.345 405.065 189.206 405.134 189.077L409.181 181.748C409.25 181.619 409.32 181.539 409.399 181.52 409.478 181.49 409.587 181.48 409.736 181.48L410.926 181.48Z"/><path d="M415.379 182.323C415.379 182.472 415.35 182.601 415.29 182.729 415.231 182.858 415.151 182.968 415.052 183.067 414.953 183.166 414.844 183.235 414.715 183.295 414.586 183.354 414.447 183.374 414.298 183.374 414.15 183.374 414.021 183.344 413.892 183.295 413.763 183.235 413.654 183.166 413.564 183.067 413.465 182.968 413.396 182.858 413.336 182.729 413.277 182.601 413.257 182.472 413.257 182.323 413.257 182.174 413.287 182.045 413.336 181.906 413.396 181.777 413.465 181.658 413.564 181.569 413.664 181.47 413.773 181.4 413.892 181.341 414.021 181.281 414.15 181.262 414.298 181.262 414.447 181.262 414.576 181.291 414.715 181.341 414.844 181.4 414.963 181.47 415.052 181.569 415.151 181.668 415.231 181.777 415.29 181.906 415.35 182.035 415.379 182.174 415.379 182.323ZM415.062 184.971 415.062 193.401 413.584 193.401 413.584 184.971 415.062 184.971Z"/><path d="M422.401 186.359C422.332 186.478 422.233 186.538 422.094 186.538 422.015 186.538 421.915 186.508 421.806 186.449 421.697 186.389 421.568 186.32 421.419 186.24 421.271 186.161 421.082 186.092 420.874 186.032 420.666 185.973 420.418 185.933 420.12 185.933 419.872 185.933 419.644 185.963 419.446 186.032 419.247 186.092 419.079 186.181 418.93 186.29 418.781 186.399 418.682 186.528 418.603 186.677 418.523 186.826 418.494 186.984 418.494 187.153 418.494 187.371 418.553 187.55 418.682 187.698 418.811 187.847 418.97 187.966 419.178 188.075 419.386 188.184 419.614 188.274 419.872 188.353 420.13 188.432 420.398 188.522 420.676 188.611 420.953 188.7 421.221 188.799 421.479 188.918 421.737 189.027 421.975 189.166 422.173 189.335 422.372 189.503 422.54 189.702 422.669 189.95 422.798 190.188 422.858 190.485 422.858 190.823 422.858 191.209 422.788 191.566 422.649 191.904 422.51 192.231 422.302 192.518 422.034 192.757 421.767 192.995 421.429 193.193 421.033 193.322 420.636 193.461 420.18 193.53 419.664 193.53 419.079 193.53 418.543 193.431 418.067 193.242 417.591 193.054 417.185 192.806 416.857 192.509L417.204 191.943C417.244 191.874 417.304 191.814 417.363 191.775 417.423 191.735 417.502 191.715 417.591 191.715 417.69 191.715 417.799 191.755 417.909 191.834 418.018 191.913 418.156 192.003 418.315 192.092 418.474 192.191 418.662 192.271 418.89 192.35 419.118 192.429 419.396 192.469 419.743 192.469 420.031 192.469 420.289 192.429 420.497 192.36 420.715 192.28 420.894 192.181 421.043 192.052 421.191 191.923 421.291 191.775 421.36 191.616 421.429 191.447 421.469 191.269 421.469 191.08 421.469 190.852 421.41 190.654 421.281 190.505 421.152 190.356 420.993 190.218 420.785 190.118 420.576 190.009 420.348 189.92 420.081 189.831 419.813 189.751 419.545 189.662 419.277 189.573 419 189.484 418.732 189.384 418.474 189.265 418.216 189.146 417.978 189.008 417.77 188.839 417.561 188.67 417.403 188.452 417.274 188.204 417.145 187.956 417.085 187.649 417.085 187.282 417.085 186.964 417.155 186.647 417.284 186.35 417.413 186.052 417.611 185.794 417.869 185.566 418.127 185.338 418.434 185.159 418.811 185.03 419.178 184.902 419.604 184.832 420.081 184.832 420.636 184.832 421.132 184.921 421.578 185.09 422.015 185.268 422.401 185.507 422.719 185.814L422.382 186.359Z"/><path d="M427.281 193.54C426.616 193.54 426.101 193.352 425.744 192.985 425.387 192.618 425.208 192.082 425.208 191.378L425.208 186.221 424.196 186.221C424.107 186.221 424.028 186.191 423.968 186.141 423.909 186.092 423.879 186.002 423.879 185.893L423.879 185.298 425.258 185.12 425.595 182.511C425.615 182.432 425.645 182.363 425.704 182.303 425.764 182.243 425.843 182.224 425.932 182.224L426.686 182.224 426.686 185.13 429.126 185.13 429.126 186.201 426.686 186.201 426.686 191.259C426.686 191.616 426.775 191.874 426.944 192.052 427.112 192.221 427.34 192.31 427.608 192.31 427.767 192.31 427.896 192.29 428.015 192.251 428.124 192.211 428.223 192.161 428.312 192.112 428.392 192.062 428.471 192.013 428.521 191.973 428.58 191.933 428.63 191.913 428.679 191.913 428.759 191.913 428.828 191.963 428.888 192.052L429.324 192.757C429.066 192.995 428.759 193.183 428.402 193.322 428.045 193.461 427.668 193.53 427.291 193.53Z"/><path d="M430.336 181.063 432.399 181.063 432.399 181.539 431.655 181.539 431.655 183.563 431.08 183.563 431.08 181.539 430.336 181.539 430.336 181.063ZM435.672 181.063 435.672 183.563 435.166 183.563 435.166 182.105 435.205 181.758 434.462 183.136C434.462 183.136 434.412 183.206 434.382 183.235 434.352 183.265 434.313 183.265 434.263 183.265L434.184 183.265C434.085 183.265 434.025 183.225 433.985 183.136L433.242 181.758 433.281 182.095 433.281 183.553 432.775 183.553 432.775 181.053 433.261 181.053C433.311 181.053 433.351 181.053 433.371 181.073 433.39 181.073 433.42 181.103 433.45 181.143L434.124 182.372C434.164 182.442 434.194 182.531 434.214 182.62 434.224 182.581 434.243 182.541 434.253 182.491 434.273 182.452 434.283 182.412 434.303 182.372L434.977 181.143C434.977 181.143 435.037 181.083 435.057 181.073 435.076 181.073 435.116 181.053 435.166 181.053L435.652 181.053Z"/><path d="M333.388 173 319.959 173 319.959 179.248 327.14 179.248 327.14 186.429 333.388 186.429 333.388 173Z" fill="#E87200"/><path d="M312.104 180.855 312.104 186.994 319.394 186.994 319.394 194.284 325.533 194.284 325.533 180.855 312.104 180.855Z" fill="#84B135"/><path d="M304.328 188.601 317.728 188.601 317.728 202 304.328 202Z" fill="#0095A9"/></g></svg>